<?xml version="1.0" encoding="UTF-8"?>
<svg id="Layer_2" xmlns="http://www.w3.org/2000/svg" viewBox="0 0 1286.52 356">
  <defs>
    <style>
      .cls-1 {
        fill: #88dff2;
      }

      .cls-2 {
        fill: #f21628;
      }

      .cls-3 {
        fill: #142b73;
      }
    </style>
  </defs>
  <g id="Layer_1-2" data-name="Layer_1">
    <g>
      <g>
        <path class="cls-3" d="M503.57,167.4c-14.27,0-26.2-2.08-35.79-6.24-9.59-4.16-16.84-9.59-21.74-16.28-4.91-6.69-7.51-13.83-7.81-21.41,0-1.19.45-2.26,1.34-3.23.89-.97,2.01-1.45,3.35-1.45h23.86c1.93,0,3.42.41,4.46,1.23,1.04.82,2.01,1.82,2.9,3.01,1.04,2.53,2.71,4.98,5.02,7.36,2.3,2.38,5.46,4.35,9.48,5.91,4.01,1.56,8.99,2.34,14.94,2.34,9.66,0,16.91-1.56,21.74-4.68,4.83-3.12,7.25-7.36,7.25-12.71,0-3.86-1.3-6.99-3.9-9.37-2.6-2.38-6.69-4.53-12.27-6.47-5.58-1.93-12.97-4.01-22.19-6.24-11.15-2.38-20.63-5.46-28.43-9.25-7.8-3.79-13.68-8.7-17.62-14.72-3.94-6.02-5.91-13.49-5.91-22.41s2.45-16.84,7.36-23.75c4.91-6.91,11.82-12.34,20.74-16.28,8.92-3.94,19.55-5.91,31.89-5.91,9.96,0,18.77,1.34,26.43,4.01,7.65,2.68,14.05,6.17,19.18,10.48,5.13,4.31,9.03,8.92,11.71,13.83,2.68,4.91,4.09,9.67,4.24,14.27,0,1.19-.45,2.27-1.34,3.23-.89.97-2.01,1.45-3.34,1.45h-24.98c-1.49,0-2.83-.3-4.01-.89-1.19-.59-2.16-1.63-2.9-3.12-.89-3.86-3.53-7.25-7.92-10.15-4.39-2.9-10.07-4.35-17.06-4.35s-13.05,1.34-17.28,4.01c-4.24,2.68-6.36,6.77-6.36,12.26,0,3.57,1.08,6.58,3.23,9.03,2.15,2.45,5.8,4.61,10.93,6.47,5.13,1.86,11.93,3.9,20.4,6.13,13.08,2.68,23.71,5.87,31.89,9.59,8.17,3.72,14.2,8.51,18.06,14.38,3.86,5.88,5.8,13.27,5.8,22.19,0,9.96-2.79,18.51-8.36,25.65-5.57,7.14-13.23,12.6-22.97,16.39-9.74,3.79-21.07,5.69-34.01,5.69Z"/>
        <path class="cls-3" d="M598.35,165.17c-1.64,0-2.98-.52-4.01-1.56-1.04-1.04-1.56-2.38-1.56-4.01V14.64c0-1.63.52-2.97,1.56-4.01,1.04-1.04,2.38-1.56,4.01-1.56h101.02c1.63,0,2.97.52,4.01,1.56,1.04,1.04,1.56,2.38,1.56,4.01v17.84c0,1.49-.52,2.75-1.56,3.79s-2.38,1.56-4.01,1.56h-72.25v35.01h67.35c1.63,0,2.97.52,4.01,1.56,1.04,1.04,1.56,2.38,1.56,4.01v16.5c0,1.49-.52,2.75-1.56,3.79s-2.38,1.56-4.01,1.56h-67.35v36.13h74.04c1.63,0,2.97.52,4.01,1.56,1.04,1.04,1.56,2.38,1.56,4.01v17.62c0,1.64-.52,2.98-1.56,4.01-1.04,1.04-2.38,1.56-4.01,1.56h-102.8Z"/>
        <path class="cls-3" d="M724.12,165.17c-1.34,0-2.45-.48-3.35-1.45-.89-.96-1.34-2.04-1.34-3.23,0-.74.07-1.41.22-2.01l53.07-143.39c.45-1.63,1.34-3.05,2.68-4.24,1.34-1.19,3.19-1.78,5.57-1.78h28.54c2.38,0,4.24.6,5.58,1.78,1.34,1.19,2.23,2.6,2.68,4.24l53.07,143.39c.15.6.22,1.26.22,2.01,0,1.19-.45,2.27-1.34,3.23-.89.97-2.01,1.45-3.34,1.45h-23.19c-2.23,0-3.87-.52-4.91-1.56-1.04-1.04-1.71-2.01-2.01-2.9l-9.59-24.98h-62.89l-9.59,24.98c-.3.89-.97,1.86-2.01,2.9s-2.68,1.56-4.91,1.56h-23.19ZM772.06,106.97h46.16l-22.97-64.22-23.19,64.22Z"/>
        <path class="cls-3" d="M503.57,349.16c-14.27,0-26.2-2.08-35.79-6.24-9.59-4.16-16.84-9.59-21.74-16.28-4.91-6.69-7.51-13.83-7.81-21.41,0-1.19.45-2.26,1.34-3.23.89-.96,2.01-1.45,3.35-1.45h23.86c1.93,0,3.42.41,4.46,1.23,1.04.82,2.01,1.82,2.9,3.01,1.04,2.53,2.71,4.98,5.02,7.36,2.3,2.38,5.46,4.35,9.48,5.91,4.01,1.56,8.99,2.34,14.94,2.34,9.66,0,16.91-1.56,21.74-4.68,4.83-3.12,7.25-7.36,7.25-12.71,0-3.86-1.3-6.99-3.9-9.37-2.6-2.38-6.69-4.53-12.27-6.47-5.58-1.93-12.97-4.01-22.19-6.24-11.15-2.38-20.63-5.46-28.43-9.25-7.8-3.79-13.68-8.7-17.62-14.72-3.94-6.02-5.91-13.49-5.91-22.41s2.45-16.84,7.36-23.75c4.91-6.91,11.82-12.34,20.74-16.28,8.92-3.94,19.55-5.91,31.89-5.91,9.96,0,18.77,1.34,26.43,4.01,7.65,2.68,14.05,6.17,19.18,10.48,5.13,4.31,9.03,8.92,11.71,13.83,2.68,4.91,4.09,9.67,4.24,14.27,0,1.19-.45,2.27-1.34,3.23-.89.97-2.01,1.45-3.34,1.45h-24.98c-1.49,0-2.83-.3-4.01-.89-1.19-.59-2.16-1.63-2.9-3.12-.89-3.86-3.53-7.25-7.92-10.15-4.39-2.9-10.07-4.35-17.06-4.35s-13.05,1.34-17.28,4.01c-4.24,2.68-6.36,6.77-6.36,12.26,0,3.57,1.08,6.58,3.23,9.03,2.15,2.45,5.8,4.61,10.93,6.47,5.13,1.86,11.93,3.9,20.4,6.13,13.08,2.68,23.71,5.88,31.89,9.59,8.17,3.72,14.2,8.51,18.06,14.38,3.86,5.88,5.8,13.27,5.8,22.19,0,9.96-2.79,18.51-8.36,25.65-5.57,7.14-13.23,12.6-22.97,16.39-9.74,3.79-21.07,5.69-34.01,5.69Z"/>
        <path class="cls-3" d="M598.35,346.93c-1.64,0-2.98-.52-4.01-1.56-1.04-1.04-1.56-2.38-1.56-4.01v-144.95c0-1.63.52-2.97,1.56-4.01,1.04-1.04,2.38-1.56,4.01-1.56h101.02c1.63,0,2.97.52,4.01,1.56,1.04,1.04,1.56,2.38,1.56,4.01v17.84c0,1.49-.52,2.75-1.56,3.79-1.04,1.04-2.38,1.56-4.01,1.56h-72.25v35.01h67.35c1.63,0,2.97.52,4.01,1.56,1.04,1.04,1.56,2.38,1.56,4.01v16.5c0,1.49-.52,2.75-1.56,3.79s-2.38,1.56-4.01,1.56h-67.35v36.13h74.04c1.63,0,2.97.52,4.01,1.56,1.04,1.04,1.56,2.38,1.56,4.01v17.62c0,1.64-.52,2.98-1.56,4.01s-2.38,1.56-4.01,1.56h-102.8Z"/>
        <path class="cls-3" d="M738.84,346.93c-1.64,0-2.98-.52-4.01-1.56-1.04-1.04-1.56-2.38-1.56-4.01v-144.95c0-1.63.52-2.97,1.56-4.01s2.38-1.56,4.01-1.56h101.02c1.63,0,2.97.52,4.01,1.56,1.04,1.04,1.56,2.38,1.56,4.01v17.84c0,1.49-.52,2.75-1.56,3.79-1.04,1.04-2.38,1.56-4.01,1.56h-72.25v35.01h67.35c1.63,0,2.97.52,4.01,1.56,1.04,1.04,1.56,2.38,1.56,4.01v16.5c0,1.49-.52,2.75-1.56,3.79s-2.38,1.56-4.01,1.56h-67.35v36.13h74.04c1.63,0,2.97.52,4.01,1.56,1.04,1.04,1.56,2.38,1.56,4.01v17.62c0,1.64-.52,2.98-1.56,4.01s-2.38,1.56-4.01,1.56h-102.8Z"/>
        <path class="cls-3" d="M879.32,346.93c-1.64,0-2.98-.52-4.01-1.56-1.04-1.04-1.56-2.38-1.56-4.01v-144.95c0-1.63.52-2.97,1.56-4.01s2.38-1.56,4.01-1.56h23.64c1.63,0,2.97.52,4.01,1.56,1.04,1.04,1.56,2.38,1.56,4.01v50.84l45.94-52.18c.59-.89,1.6-1.82,3.01-2.79,1.41-.97,3.31-1.45,5.69-1.45h26.98c1.34,0,2.45.48,3.34,1.45.89.97,1.34,2.05,1.34,3.23,0,1.04-.3,1.93-.89,2.68l-57.31,67.35,61.55,74.04c.59.6.89,1.49.89,2.68s-.45,2.27-1.34,3.23c-.89.97-2.01,1.45-3.35,1.45h-27.88c-2.68,0-4.68-.59-6.02-1.78-1.34-1.19-2.23-2.01-2.68-2.45l-49.28-57.09v55.75c0,1.64-.52,2.98-1.56,4.01s-2.38,1.56-4.01,1.56h-23.64Z"/>
        <path class="cls-3" d="M1023.6,346.93c-1.64,0-2.98-.52-4.01-1.56-1.04-1.04-1.56-2.38-1.56-4.01v-144.95c0-1.63.52-2.97,1.56-4.01s2.38-1.56,4.01-1.56h101.02c1.63,0,2.97.52,4.01,1.56,1.04,1.04,1.56,2.38,1.56,4.01v17.84c0,1.49-.52,2.75-1.56,3.79-1.04,1.04-2.38,1.56-4.01,1.56h-72.25v35.01h67.35c1.63,0,2.97.52,4.01,1.56,1.04,1.04,1.56,2.38,1.56,4.01v16.5c0,1.49-.52,2.75-1.56,3.79s-2.38,1.56-4.01,1.56h-67.35v36.13h74.04c1.63,0,2.97.52,4.01,1.56,1.04,1.04,1.56,2.38,1.56,4.01v17.62c0,1.64-.52,2.98-1.56,4.01s-2.38,1.56-4.01,1.56h-102.8Z"/>
        <path class="cls-3" d="M1164.09,346.93c-1.64,0-2.98-.52-4.01-1.56-1.04-1.04-1.56-2.38-1.56-4.01v-144.95c0-1.63.52-2.97,1.56-4.01s2.38-1.56,4.01-1.56h59.09c18.58,0,33.23,4.28,43.93,12.82,10.7,8.55,16.06,20.85,16.06,36.91,0,10.85-2.6,19.92-7.81,27.21-5.21,7.29-12.19,12.71-20.96,16.28l31.44,55.75c.45.89.67,1.71.67,2.45,0,1.19-.45,2.27-1.34,3.23-.89.97-2.01,1.45-3.34,1.45h-24.75c-2.68,0-4.68-.7-6.02-2.12-1.34-1.41-2.31-2.71-2.9-3.9l-27.21-51.07h-26.98v51.51c0,1.64-.52,2.98-1.56,4.01-1.04,1.04-2.38,1.56-4.01,1.56h-24.31ZM1193.97,261.52h28.54c8.17,0,14.23-1.86,18.17-5.58,3.94-3.71,5.91-8.92,5.91-15.61s-1.93-11.97-5.8-15.83c-3.87-3.86-9.96-5.8-18.29-5.8h-28.54v42.82Z"/>
      </g>
      <g>
        <g>
          <polygon class="cls-2" points="205.79 127.23 205.79 140.38 179.87 130.96 178.01 130.29 176.16 130.96 150.24 140.38 150.24 127.23 178.01 117.15 205.79 127.23"/>
          <polygon class="cls-2" points="230.49 155.12 230.49 175.62 180.61 148.5 178.01 147.1 175.41 148.5 125.54 175.62 125.54 155.12 178.01 136.08 230.49 155.12"/>
          <path class="cls-2" d="M241.95,188.05l-14.26,27.41c-29.93,5.57-60.2,14.05-88.81,20.26l-18.48-35.51-6.32-12.16,48.74-26.5,15.19-8.27,19.73,10.73,44.21,24.04Z"/>
          <path class="cls-2" d="M173.24,106.04c-1.9,0-3.43,1.54-3.43,3.43v5.46l8.21-2.3,8.21,2.3v-5.46c0-1.9-1.54-3.43-3.43-3.43h-9.55Z"/>
        </g>
        <g>
          <path class="cls-1" d="M335.75,178l-48.68-12.35c.47,4.05.7,8.17.7,12.35h47.98Z"/>
          <path class="cls-1" d="M178,20.24l-12.35,48.68c4.05-.47,8.17-.7,12.35-.7V20.24Z"/>
          <path class="cls-1" d="M277.03,78.96l-27.09,16.12c1.95,1.69,3.85,3.46,5.68,5.29l21.41-21.41Z"/>
          <path class="cls-1" d="M100.37,100.37l-21.41-21.41,16.12,27.09c1.69-1.95,3.46-3.85,5.29-5.68Z"/>
          <path class="cls-1" d="M178,335.75v-47.98c-4.18,0-8.3-.23-12.35-.69l12.35,48.67Z"/>
          <path class="cls-1" d="M55.34,263.45c12.94,9.17,28.13,12.75,44.89,12.75.98,0,1.97-.01,2.97-.04.91-.02,1.82-.05,2.73-.09.59-.03,1.18-.06,1.78-.1,2.28-.13,4.59-.32,6.93-.57.77-.08,1.55-.16,2.33-.26.3-.03.61-.07.91-.11.9-.11,1.8-.23,2.7-.36.88-.12,1.77-.25,2.66-.39.21-.03.43-.06.65-.1.76-.12,1.51-.24,2.27-.37.9-.15,1.8-.31,2.71-.48.53-.09,1.07-.19,1.61-.29.66-.12,1.31-.25,1.97-.38.87-.17,1.74-.35,2.61-.53.9-.18,1.81-.38,2.71-.58,3.52-.76,7.09-1.61,10.69-2.52.73-.18,1.46-.37,2.19-.56.67-.17,1.35-.35,2.03-.53.73-.19,1.46-.39,2.19-.59.83-.22,1.67-.45,2.52-.69,2.39-.65,4.8-1.34,7.21-2.04,1.09-.31,2.18-.63,3.28-.96,1.09-.32,2.18-.65,3.28-.98,1.1-.33,2.2-.66,3.3-1,1.1-.33,2.21-.67,3.31-1.02,1.11-.33,2.22-.68,3.33-1.03,9.22-2.87,18.56-5.89,27.95-8.86,1.9-.6,3.81-1.2,5.72-1.79,3.4-1.07,6.8-2.11,10.2-3.13,1.13-.35,2.26-.68,3.4-1.02,1.11-.33,2.22-.66,3.34-.98,4.85-1.42,9.71-2.77,14.55-4.04.76-.2,1.52-.4,2.28-.59,0,0,0-.01.01-.01,1-.26,2.01-.51,3.01-.76.68-.17,1.36-.34,2.03-.5,1.9-.47,3.79-.92,5.68-1.34,1.01-.23,2.01-.45,3-.67,1.13-.25,2.25-.49,3.37-.72.9-.18,1.79-.37,2.69-.54,1.39-.28,2.77-.55,4.16-.8,1.07-.19,2.13-.38,3.19-.56,2.22-.38,4.44-.72,6.65-1.04,1.1-.16,2.2-.3,3.3-.44.92-.12,1.84-.23,2.76-.34.31-.04.63-.07.94-.1.96-.1,1.92-.2,2.88-.29,2.05-.2,4.1-.36,6.13-.48.21-.02.41-.03.61-.04.86-.05,1.72-.09,2.58-.13.37-.02.75-.04,1.12-.04.63-.03,1.26-.05,1.89-.06.53-.02,1.07-.03,1.6-.03,9.01-.14,17.82.51,26.36,2.14-93.75-25.25-208.68,68.77-277.16,30.98Z"/>
          <path class="cls-1" d="M345.54,223.1c-39.96-13.31-81.97-8.02-122.7,1.67-1.31.31-2.62.63-3.93.95-75.37,18.46-145.96,50.49-190.48,5.53,28.65,18,67.7,13.76,110.45,4.47,28.61-6.21,58.88-14.69,88.81-20.26,41.78-7.78,82.89-9.92,117.85,7.64Z"/>
          <path class="cls-1" d="M68.92,165.65l-48.68,12.35h47.98c0-4.18.23-8.3.7-12.35Z"/>
        </g>
        <g>
          <path class="cls-3" d="M0,178l69.64,17.66c2.55,15.8,8.48,30.47,17.02,43.24,6.16-.3,12.5-.92,18.99-1.8-13.17-16.11-21.07-36.68-21.07-59.1,0-51.59,41.82-93.42,93.42-93.42s93.41,41.83,93.41,93.42c0,9.6-1.45,18.86-4.14,27.58,5.1-.34,10.17-.53,15.2-.53.64,0,1.29.01,1.93.01.78-3.08,1.43-6.21,1.95-9.39l69.65-17.67-69.66-17.68c-3.12-19.32-11.29-36.96-23.12-51.51l23.58-39.62-39.62,23.59c-14.55-11.84-32.19-20.02-51.51-23.14L178,0l-17.68,69.65c-19.33,3.12-36.96,11.29-51.51,23.13l-39.62-23.59,23.58,39.62c-11.83,14.55-20,32.19-23.12,51.51L0,178ZM68.22,178H20.24l48.68-12.35c-.47,4.05-.7,8.17-.7,12.35ZM335.75,178h-47.98c0-4.18-.23-8.3-.7-12.35l48.68,12.35ZM277.03,78.96l-21.41,21.41c-1.83-1.83-3.73-3.6-5.68-5.29l27.09-16.12ZM178,20.24v47.98c-4.18,0-8.3.23-12.35.7l12.35-48.68ZM78.96,78.96l21.41,21.41c-1.83,1.83-3.6,3.73-5.29,5.68l-16.12-27.09Z"/>
          <path class="cls-3" d="M345.54,223.1c-115.34-38.43-247.8,78.14-317.11,8.15,70.51,92.52,172.82-31.38,317.11-8.15Z"/>
          <rect class="cls-3" x="290.05" y="241.39" width="31.08" height="125.65" rx="13.97" ry="13.97" transform="translate(-125.61 305.19) rotate(-45)"/>
          <path class="cls-3" d="M332.5,232.47c-8.54-1.63-17.35-2.28-26.36-2.14-74.35-2.42-190.28,75.11-250.8,33.12,19.85,18.21,46.93,20.04,77.47,14.62,8.64,3.9,17.87,6.72,27.52,8.28l17.67,69.65,17.66-69.65c30.72-4.99,57.35-22.64,74.16-48.18,22.08-5.29,43.35-8.12,62.68-5.7ZM178,335.75l-12.35-48.67c4.05.46,8.17.69,12.35.69v47.98ZM178,271.41c-4.51,0-8.95-.31-13.29-.94,25.14-7.16,51.59-16.83,77.6-24.73-16.75,15.91-39.39,25.67-64.31,25.67Z"/>
        </g>
      </g>
    </g>
  </g>
</svg>